<svg xmlns="http://www.w3.org/2000/svg"
width="1000" height="1000">
    <!--Sol-->
    <rect x="0" y="200" rx="0" ry="0" height="50" width="300" fill="green"/>
    <!--Soleil-->
    <circle cx="50" cy="50" r="30" fill="yellow">
      <animate id="SoleilGrandir" attributeType="XML" attributeName="r" dur="1s" begin="0s; SoleilRéduire.end"
        from="25" to="35" />
      <animate id="SoleilRéduire" attributeType="XML" attributeName="r" dur="1s" begin="SoleilGrandir.end" from="35"
        to="25" />
    </circle>
    <!--Les Jean-->
    <g id="Jean1" transform="scale(0.1) translate(222,1050)">
                <text x="400" y="300" stroke="red" transform="scale(2) translate(-200,-100)">Jean-Michel Castor</text>
        <circle cx="500" cy="500" r="50" stroke="white" stroke-width="3" fill="none" />
        <line x1="500" y1="550" x2="500" y2="800" stroke="white" stroke-width="3"/>
        <!-- Bras-->
        <line x1="500" y1="600" x2="400" y2="560" stroke="white" stroke-width="3"/>
        <line  x1="500" y1="600" x2="600" y2="560" stroke="white" stroke-width="3"/>
        <!--Jambes-->
        <line x1="500" y1="800" x2="450" y2="950" stroke="white" stroke-width="3"/>
        <line x1="500" y1="800" x2="550" y2="950" stroke="white" stroke-width="3"/>
        <!--Yeux-->
        <circle cx="480" cy="490" r="10" stroke="white" stroke-width="3"/>
        <circle cx="520" cy="490" r="10" stroke="white" stroke-width="3"/>
        <!--Bouche-->
        <path d="M 475 525 Q 500 550 525 520" stroke="white" stroke-width="3" fill="none"></path>

    </g>
    <g id="Jean2" transform="scale(0.1) translate(777,1050)">
                <text x="400" y="300" stroke="red" transform="scale(2) translate(-200,-100)">Jean-Michel Castor</text>
        <circle cx="500" cy="500" r="50" stroke="white" stroke-width="3" fill="none" />
        <line x1="500" y1="550" x2="500" y2="800" stroke="white" stroke-width="3"/>
        <!-- Bras-->
        <line x1="500" y1="600" x2="400" y2="560" stroke="white" stroke-width="3"/>
        <line  x1="500" y1="600" x2="600" y2="560" stroke="white" stroke-width="3"/>
        <!--Jambes-->
        <line x1="500" y1="800" x2="450" y2="950" stroke="white" stroke-width="3"/>
        <line x1="500" y1="800" x2="550" y2="950" stroke="white" stroke-width="3"/>
        <!--Yeux-->
        <circle cx="480" cy="490" r="10" stroke="white" stroke-width="3"/>
        <circle cx="520" cy="490" r="10" stroke="white" stroke-width="3"/>
        <!--Bouche-->
        <path d="M 475 525 Q 500 550 525 520" stroke="white" stroke-width="3" fill="none"></path>

    </g>
    <!--Arbre-->
        <rect width="20" height="50" x="225" y="150" fill="#3f1c02" />
        
</svg>